<svg xmlns="http://www.w3.org/2000/svg" version="1.1" xmlns:xlink="http://www.w3.org/1999/xlink" xmlns:svgjs="http://svgjs.com/svgjs" width="50" height="50"><g><path d="M0.12550998802710023 -1.0543877662045604 C16.972409549366972 -1.582115967766477, 32.841495195417345 -1.6000570745618579, 49.15962864567353 -1.593509043610081 M-0.5790484677370347 -0.7351464239921999 C14.483034313592855 -0.41194742978532295, 27.262616085660866 0.6932256987089493, 49.56973809693924 0.3074331805891255 M48.272692655930015 1.1321415158089252 C49.710846609599294 12.53493590256784, 51.280249098984 20.25518532428587, 51.91229221861285 50.122908260637345 M50.85616678881998 0.5711407643161319 C50.19897007903267 15.11015636033849, 49.96009357813382 29.183547528000716, 49.345623361457825 50.84137931705017 M50.403146087604824 50.42097397546895 C30.27349513834547 50.69368988640996, 13.49314675371637 48.41384878040286, -1.3275088044055119 51.23788154875965 M49.48169544043615 49.007623416108004 C38.89566673567404 49.993312400031336, 26.374666360719942 50.0938892444558, -0.43567714772704136 50.50504229549232 M-1.5379478113978955 48.03957950851107 C0.5235868380993149 35.099100260249024, 0.44369308903303994 21.738938594712916, 1.5078482395085295 1.911901316671007 M-0.9930930377782303 49.53163044356514 C-0.4246559631647704 29.771271379568283, 0.6449282784662678 10.657788369708737, 0.5266162840235844 -0.06267854179838261" style="stroke: rgb(0, 0, 0); stroke-width: 1; fill: none;"></path></g><g><g><path d="M25.652795708167343 3.7927532476502925 C29.444336279106004 3.922801963141889, 34.60652249152883 7.520084384870669, 37.62133395233642 10.551477065250142 C40.636145413144014 13.582869745629614, 43.167352686362264 17.657975631241, 43.74166447301288 21.98110932992713 C44.3159762596635 26.304243028613257, 43.05893314115968 32.6234826822353, 41.06720467224014 36.490279257366915 C39.0754762033206 40.35707583249853, 35.85223336755167 43.85323982764348, 31.791293659495647 45.18188878071683 C27.730353951439625 46.51053773379019, 20.812892729507496 46.12672497211372, 16.701566423904 44.462172975807064 C12.590240118300505 42.79762097950041, 8.95717888602656 39.323827382012084, 7.123335825874669 35.194576802876895 C5.2894927657227795 31.065326223741703, 4.678310321137026 24.239216016716608, 5.698508062992662 19.68666950099592 C6.718705804848298 15.13412298527523, 9.155402392688645 10.344583707518737, 13.244522277008487 7.879297708552766 C17.333642161328328 5.414011709586795, 27.202022100951318 5.181189539991124, 30.233227368911717 4.894953507200093 C33.264432636872115 4.608717474409062, 31.547152310099058 5.6383598351942394, 31.43175388477088 6.16188151180658 M21.939496051699063 4.569093437181774 C26.189882560038193 3.5979512430647573, 31.986848385834968 5.620100410590039, 35.55748273021812 7.956792922275628 C39.12811707460127 10.293485433961218, 42.0619963866013 14.863452608218559, 43.363302117997975 18.589248507295306 C44.66460784939465 22.315044406372053, 44.746248546288456 26.2408124115128, 43.365317118598156 30.311568316736107 C41.98438569090786 34.382324221959415, 38.48737557778039 40.37936031070711, 35.07771355185619 43.01378393863516 C31.668051525931993 45.6482075665632, 26.89084685151881 46.65453813572642, 22.907344963052967 46.11811008430438 C18.923843074587126 45.581682032882334, 14.160527149085206 43.28298573842285, 11.17670222106115 39.79521563010291 C8.192877293037094 36.30744552178297, 5.24689647150679 29.78497397850791, 5.004395394908627 25.191489434384717 C4.761894318310465 20.598004890261524, 6.856272844394439 15.372558076068412, 9.721695761472175 12.23430836536375 C12.58711867854991 9.096058654659089, 20.400834175443315 7.377147956702025, 22.196932897375042 6.361991170156749 C23.99303161930677 5.346834383611473, 20.801295175725695 5.874843825529247, 20.498288093062534 6.143367646092091" style="stroke: none; stroke-width: 0; fill: red;"></path><path d="M27.65092787250969 4.642592994510743 C31.450329466240596 4.701681272492312, 35.79200553325712 7.478817517268489, 38.551822353120414 10.541259208685862 C41.31163917298371 13.603700900103235, 43.757370566615506 18.64151555261139, 44.20982879168948 23.017243143014976 C44.66228701676346 27.39297073341856, 43.79569568148135 33.29700960784763, 41.26657170356429 36.79562475110737 C38.73744772564723 40.29423989436711, 33.03831759359545 43.11073662745256, 29.035084924187124 44.008934002573426 C25.0318522547788 44.90713137769429, 20.77776893536095 43.8759825768153, 17.24717568711435 42.18480900183256 C13.71658243886775 40.49363542684983, 9.574798883015104 37.559808413080084, 7.851525434707526 33.861892552677006 C6.128251986399948 30.163976692273927, 5.809208279169847 24.295780004981783, 6.907534997268883 19.997313839414097 C8.005861715367917 15.698847673846412, 10.80268510637602 10.470030881257863, 14.441485743301739 8.071095559270894 C18.08028638022746 5.672160237283926, 26.372361688996094 5.924089248933392, 28.7403388188232 5.603701907492283 C31.108315948650308 5.283314566051175, 28.976492471394813 5.807559887745028, 28.64934852226439 6.148771510624243 M18.4803343309477 7.395854385703014 C21.831969087637603 6.008601045843642, 27.65529842025003 6.662330773121574, 31.59341027301216 7.7968264881919005 C35.531522125774295 8.931322203262226, 40.15929182109607 10.706218837703046, 42.10900544752049 14.202828676124973 C44.05871907394491 17.6994385145469, 44.37041115483058 24.277961176291015, 43.29169203155867 28.776485518723465 C42.21297290828676 33.275009861155915, 38.74038319315042 38.55594045167162, 35.636690707889024 41.193974730719674 C32.532998222627626 43.83200900976773, 28.4051353443255 44.79432402195914, 24.669537119990302 44.60469119301179 C20.933938895655103 44.415058364064436, 16.49928959684929 43.05004966884977, 13.22310136187784 40.05617775703554 C9.946913126906388 37.06230584522131, 5.990139168859352 30.84812026093763, 5.01240771016159 26.6414597221264 C4.034676251463827 22.434799183315167, 4.98679240332002 18.084363907895455, 7.356712609691261 14.81621452416815 C9.726632816062502 11.548065140440844, 17.259187006772958 8.669717344528577, 19.231928948389037 7.032563419762564 C21.204670890005115 5.395409494996551, 19.170145264629795 5.023625819741308, 19.193164259387732 4.993290975572073" style="stroke: none; stroke-width: 1; fill: none;"></path></g></g></svg>